Another Fine Release Brought to you from - IMAGiNE


********************************************************************************************************************
Takers 2010 TS READNFO XViD - IMAGiNE
********************************************************************************************************************

Ripper ...........: IMAGiNE IMDB Rating.......:5.0/10
Video Codec.......: XVID Release Date......:27/08/10
Audio Codec.......:MP3 Theatre Date......:29/08/10
Audio Bitrate.....:128 Runtime.......:1h 41mn
Subtitles.........:NIL Language..........:ENGLISH
Resolution...... 720 x 304 IMDb http://www.imdb.com/title/tt1135084/

DETAILS:

Video
Format : MPEG-4 Visual
Format profile : Simple@L3
Format settings, BVOP : No
Format settings, QPel : No
Format settings, GMC : No warppoints
Format settings, Matrix : Default
Codec ID : XVID
Codec ID/Hint : XviD
Duration : 1h 41mn
Bit rate : 1 070 Kbps
Width : 720 pixels
Height : 304 pixels
Display aspect ratio : 2.35
Frame rate : 23.976 fps
Resolution : 24 bits
Colorimetry : 4:2:0
Scan type : Progressive
Bits/(Pixel*Frame) : 0.204
Stream size : 775 MiB (84%)
Writing library : XviD 50

Audio
Format : MPEG Audio
Format version : Version 1
Format profile : Layer 3
Codec ID : 55
Codec ID/Hint : MP3
Duration : 1h 41mn
Bit rate mode : Constant
Bit rate : 192 Kbps
Channel(s) : 2 channels
Sampling rate : 48.0 KHz
Resolution : 16 bits
Stream size : 139 MiB (15%)
Alignment : Split accross interleaves
Interleave, duration : 42 ms (1.00 video frame)
Interleave, preload duration : 500 ms



SOURCES:

VIDEO:Russian cam & Russian TS.. Thanks
AUDIO:From a good friend... Thanks

NOTES:

IMAGiNE bringing you another release..........Takers 2010

First we need to add 3 scenes from the russian cam to the russian ts video we used, almost 2 minutes worth. As the Russian TS was missing some video.
We then used a small script containing crop,resize,white balance,rgb eq,sharpness,chroma,brightness,contrast ect.To the russian cam and TS and then added
the missing video to the TS russian video to make it a full video
For the audio we need to use first 2 minutes of cam audio from our cam release as the line audio was missing the first 2 minutes from the beginning.
Cleaned up the audio some as it had some small problems with noise and lowered the volume down
It took a great deal of time working on this so Enjoy folks...